<svg width="81" height="85" viewBox="0 0 81 85" fill="none" xmlns="http://www.w3.org/2000/svg">
<path d="M40.156 2.008C39.836 3.736 39.324 5.976 38.62 8.72799C37.916 11.48 36.892 14.584 35.548 18.04C34.524 20.408 33.34 22.872 31.996 25.432C30.716 27.928 29.404 30.168 28.06 32.152C28.892 31.768 29.948 31.448 31.228 31.192C32.508 30.872 33.82 30.648 35.164 30.52C36.572 30.328 37.82 30.232 38.908 30.232C42.94 30.232 46.268 31.384 48.892 33.688C51.58 35.992 52.924 39.416 52.924 43.96C52.924 45.24 52.924 46.808 52.924 48.664C52.988 50.52 53.052 52.472 53.116 54.52C53.18 56.504 53.244 58.456 53.308 60.376C53.372 62.296 53.404 64.024 53.404 65.56H41.884C42.012 64.472 42.076 63.192 42.076 61.72C42.14 60.184 42.172 58.584 42.172 56.92C42.236 55.256 42.268 53.656 42.268 52.12C42.332 50.52 42.364 49.08 42.364 47.8C42.364 44.728 41.532 42.616 39.868 41.464C38.268 40.248 36.476 39.64 34.492 39.64C31.804 39.64 29.084 40.312 26.332 41.656C23.644 42.936 21.372 44.472 19.516 46.264C18.108 47.672 16.668 49.24 15.196 50.968C13.788 52.696 12.252 54.648 10.588 56.824L0.316 49.144C4.476 45.304 8.06 41.592 11.068 38.008C14.14 34.424 16.732 30.872 18.844 27.352C20.956 23.832 22.684 20.312 24.028 16.792C24.988 14.232 25.756 11.576 26.332 8.824C26.972 6.008 27.356 3.384 27.484 0.951998L40.156 2.008ZM4.06 10.84C6.492 11.224 9.308 11.512 12.508 11.704C15.708 11.896 18.524 11.992 20.956 11.992C25.18 11.992 29.788 11.896 34.78 11.704C39.836 11.512 44.956 11.192 50.14 10.744C55.324 10.232 60.252 9.592 64.924 8.824L64.828 19.96C61.436 20.408 57.756 20.824 53.788 21.208C49.884 21.528 45.884 21.816 41.788 22.072C37.756 22.264 33.884 22.424 30.172 22.552C26.46 22.616 23.164 22.648 20.284 22.648C19.004 22.648 17.404 22.648 15.484 22.648C13.628 22.584 11.708 22.52 9.724 22.456C7.74 22.328 5.852 22.2 4.06 22.072V10.84ZM80.092 38.104C79.068 38.424 77.852 38.84 76.444 39.352C75.1 39.8 73.724 40.28 72.316 40.792C70.972 41.24 69.756 41.688 68.668 42.136C65.596 43.352 61.948 44.824 57.724 46.552C53.564 48.28 49.212 50.296 44.668 52.6C41.788 54.136 39.356 55.64 37.372 57.112C35.388 58.584 33.884 60.088 32.86 61.624C31.836 63.096 31.324 64.728 31.324 66.52C31.324 67.864 31.612 68.984 32.188 69.88C32.764 70.712 33.628 71.384 34.78 71.896C35.932 72.408 37.372 72.76 39.1 72.952C40.828 73.144 42.876 73.24 45.244 73.24C49.34 73.24 53.852 73.016 58.78 72.568C63.708 72.056 68.284 71.384 72.508 70.552L72.124 82.936C70.076 83.192 67.484 83.448 64.348 83.704C61.212 84.024 57.948 84.248 54.556 84.376C51.228 84.504 48.028 84.568 44.956 84.568C39.964 84.568 35.484 84.088 31.516 83.128C27.548 82.168 24.412 80.536 22.108 78.232C19.868 75.864 18.748 72.632 18.748 68.536C18.748 65.208 19.484 62.2 20.956 59.512C22.492 56.824 24.508 54.392 27.004 52.216C29.5 50.04 32.22 48.088 35.164 46.36C38.172 44.568 41.116 42.936 43.996 41.464C46.94 39.928 49.596 38.616 51.964 37.528C54.332 36.44 56.54 35.48 58.588 34.648C60.7 33.752 62.716 32.856 64.636 31.96C66.492 31.128 68.284 30.328 70.012 29.56C71.74 28.728 73.5 27.864 75.292 26.968L80.092 38.104Z" fill="black"/>
</svg>
